<svg width="12" height="22" viewBox="0 0 12 22" fill="none" xmlns="http://www.w3.org/2000/svg">
<path d="M11 21H10C8.93913 21 7.92172 20.5786 7.17157 19.8284C6.42143 19.0783 6 18.0609 6 17M6 17V5M6 17C6 18.0609 5.57857 19.0783 4.82843 19.8284C4.07828 20.5786 3.06087 21 2 21H1M6 17V16M6 5C6 3.93913 6.42143 2.92172 7.17157 2.17157C7.92172 1.42143 8.93913 1 10 1H11M6 5C6 3.93913 5.57857 2.92172 4.82843 2.17157C4.07828 1.42143 3.06087 1 2 1H1M6 5V6" stroke="#A1A1AA" stroke-width="2" stroke-linecap="round" stroke-linejoin="round"/>
</svg>
