<svg width="22" height="20" viewBox="0 0 22 20" fill="none" xmlns="http://www.w3.org/2000/svg">
<path d="M17 19C17 16.8783 16.1571 14.8434 14.6569 13.3431C13.1566 11.8429 11.1217 11 9 11M9 11C6.87827 11 4.84344 11.8429 3.34315 13.3431C1.84285 14.8434 1 16.8783 1 19M9 11C11.7614 11 14 8.76142 14 6C14 3.23858 11.7614 1 9 1C6.23858 1 4 3.23858 4 6C4 8.76142 6.23858 11 9 11ZM21 18C21 14.63 19 11.5 17 9.99995C17.6575 9.50672 18.1832 8.85904 18.5306 8.11422C18.8781 7.3694 19.0366 6.55042 18.9921 5.72975C18.9476 4.90908 18.7015 4.11204 18.2755 3.40915C17.8496 2.70626 17.2569 2.11921 16.55 1.69995" stroke="#107E0B" stroke-width="2" stroke-linecap="round" stroke-linejoin="round"/>
</svg>
